<svg xmlns="http://www.w3.org/2000/svg" width="512" height="512" viewBox="0 0 256 256">
  <rect width="256" height="256" rx="48" fill="#1e3fae" />
  <g transform="translate(64 64) scale(5.3333333333)" fill="none" stroke="#ffffff" stroke-width="2" stroke-linecap="round" stroke-linejoin="round">
    <path d="M6 22V4a2 2 0 0 1 2-2h8a2 2 0 0 1 2 2v18Z" />
    <path d="M6 12H4a2 2 0 0 0-2 2v6a2 2 0 0 0 2 2h2" />
    <path d="M18 9h2a2 2 0 0 1 2 2v9a2 2 0 0 1-2 2h-2" />
    <path d="M10 6h4" />
    <path d="M10 10h4" />
    <path d="M10 14h4" />
    <path d="M10 18h4" />
  </g>
</svg>
